<svg width="432" height="178" viewBox="0 0 432 178" fill="none" xmlns="http://www.w3.org/2000/svg">
<path d="M338.667 16.598C321.299 16.598 305.036 21.4038 291.118 29.7713C272.795 11.9052 246.988 0.77771 218.393 0.77771C183.25 0.77771 152.31 17.5837 134.317 43.0513C122.098 37.0948 108.385 33.7595 93.9034 33.7595C42.5228 33.7595 0.869207 75.7777 0.869207 127.608C0.869207 142.452 4.28775 156.495 10.3719 168.97C11.6663 171.627 13.0824 174.216 14.6074 176.717H404.545C406.967 174.267 409.264 171.679 411.408 168.97C424.108 152.92 431.701 132.582 431.701 110.45C431.701 58.6194 390.047 16.598 338.667 16.598Z" fill="#F1EBB8"/>
<path d="M45.4735 169.581L29.9315 169.636C29.9315 169.617 29.9315 169.6 29.9315 169.581C29.9315 160.981 36.948 153.903 45.4735 153.903C53.999 153.903 61.0155 160.981 61.0155 169.581H45.4735Z" fill="#6C6E75"/>
<path d="M75.558 169.613L66.9203 169.642C66.9203 169.633 66.9203 169.623 66.9203 169.613C66.9203 165.14 70.8194 161.459 75.558 161.459C80.2965 161.459 84.1956 165.14 84.1956 169.613H75.558Z" fill="#6C6E75"/>
<path d="M368.565 153.9C360.171 153.9 353.248 160.758 353.033 169.177C352.789 164.901 349.002 161.456 344.418 161.456C339.679 161.456 335.78 165.137 335.78 169.61H344.418L353.055 169.639C353.055 169.629 353.055 169.62 353.055 169.61C353.055 169.6 353.052 169.587 353.052 169.578H368.562L384.104 169.633C384.104 169.613 384.104 169.597 384.104 169.578C384.107 160.978 377.091 153.9 368.565 153.9Z" fill="#6C6E75"/>
<path d="M425.907 169.636H4.13848C2.01797 169.636 0.29895 171.37 0.29895 173.509C0.29895 175.649 2.01795 177.383 4.13846 177.383H425.907C428.028 177.383 429.747 175.649 429.747 173.509C429.747 171.37 428.028 169.636 425.907 169.636Z" fill="black"/>
<path d="M167.628 169.636C177.402 169.636 185.326 161.643 185.326 151.783C185.326 141.923 177.402 133.93 167.628 133.93C157.853 133.93 149.93 141.923 149.93 151.783C149.93 161.643 157.853 169.636 167.628 169.636Z" fill="black"/>
<path d="M298.81 169.636C308.585 169.636 316.509 161.643 316.509 151.783C316.509 141.923 308.585 133.93 298.81 133.93C289.036 133.93 281.112 141.923 281.112 151.783C281.112 161.643 289.036 169.636 298.81 169.636Z" fill="black"/>
<path d="M281.112 143.696H159.99V43.4422C159.99 40.3719 162.457 37.8866 165.497 37.8866H275.602C278.645 37.8866 281.109 40.3751 281.109 43.4422V143.696H281.112Z" fill="black"/>
<path d="M293.46 65.5648H248.5V51.8032H283.788C289.128 51.8032 293.46 56.1728 293.46 61.5604V65.5648Z" fill="#BD6D11"/>
<path d="M267.845 65.5648H223.414V51.8032H258.387C263.61 51.8032 267.845 56.0758 267.845 61.3439V65.5648Z" fill="#ED8E22"/>
<path d="M329.949 128.274H282.176V103.601H307.586L322.407 110.165C324.458 111.077 326.181 112.515 327.44 114.28C328.86 116.264 329.696 118.672 329.763 121.215L329.843 124.185L329.949 128.274Z" fill="#ED8E22"/>
<path d="M300.304 118.471L300.159 114.406L305.17 114.225C307.115 114.153 308.755 115.685 308.826 117.647L308.906 119.861C308.977 121.823 307.451 123.478 305.507 123.549L302.367 123.662C301.121 122.249 300.374 120.427 300.304 118.471Z" fill="#BD6D11"/>
<path d="M307.586 103.601L281.894 103.611L276.643 88.1785L274.599 82.1736L267.845 62.3199H293.476L307.586 103.601Z" fill="black"/>
<path d="M304.395 119.541V128.274H223.414V62.3199H267.845L282.176 103.601L299.621 111.988C300.768 112.541 301.752 113.326 302.518 114.276C303.716 115.734 304.395 117.586 304.395 119.541Z" fill="#F3C108"/>
<path d="M231.488 68.9486H257.545C260.864 68.9486 263.77 71.2562 264.619 74.5657L272.411 104.907H231.488V68.9486Z" fill="black"/>
<path d="M276.566 102.415H267.589C266.224 102.415 265.119 101.3 265.119 99.9233V97.787C265.119 96.4102 266.224 95.2952 267.589 95.2952H274.096C275.461 95.2952 276.566 96.4102 276.566 97.787V102.415Z" fill="#BD6D11"/>
<path d="M238.562 113.09H231.859C231.35 113.09 230.936 112.673 230.936 112.159V112.04C230.936 111.526 231.35 111.109 231.859 111.109H238.562C239.071 111.109 239.484 111.526 239.484 112.04V112.159C239.484 112.676 239.071 113.09 238.562 113.09Z" fill="black"/>
<path d="M304.395 119.541V123.607H299.381C297.433 123.607 295.85 122.017 295.85 120.052V117.835C295.85 115.87 297.433 114.273 299.381 114.273H302.521C303.716 115.734 304.395 117.586 304.395 119.541Z" fill="#ED8E22"/>
<path d="M293.261 62.3199L284.952 75.2492L276.643 88.1785L274.599 82.1736L287.36 62.3199H293.261Z" fill="#EDE5D7"/>
<path d="M329.843 124.182H327.034C325.701 124.182 324.624 123.096 324.624 121.752V116.707C324.624 115.369 325.701 114.276 327.034 114.276H327.444C328.863 116.261 329.699 118.668 329.766 121.212L329.843 124.182Z" fill="#E78B24"/>
<path d="M329.491 143.696H304.392V128.277H329.491C331.775 128.277 333.63 130.145 333.63 132.453V139.524C333.63 141.828 331.779 143.696 329.491 143.696Z" fill="#BD6D11"/>
<path d="M223.414 143.696H304.36C306.872 143.696 308.909 141.641 308.909 139.107V132.863C308.909 130.329 306.872 128.274 304.36 128.274H223.414V143.696Z" fill="#ED8E22"/>
<path d="M215.026 143.696H93.9034V43.4422C93.9034 40.3719 96.3704 37.8866 99.4109 37.8866H209.515C212.559 37.8866 215.023 40.3751 215.023 43.4422V143.696H215.026Z" fill="#F3C108"/>
<path d="M215.026 143.696H91.1641C89.4308 143.696 88.0243 142.278 88.0243 140.529V131.441C88.0243 129.693 89.4308 128.274 91.1641 128.274H215.026L215.026 143.696Z" fill="#ED8E22"/>
<path d="M114.129 118.284C111.922 118.284 110.131 116.477 110.131 114.25V59.6051C110.131 57.3783 111.922 55.5716 114.129 55.5716C116.337 55.5716 118.128 57.3783 118.128 59.6051V114.25C118.128 116.477 116.337 118.284 114.129 118.284Z" fill="black"/>
<path d="M140.549 118.284C138.341 118.284 136.55 116.477 136.55 114.25V59.6051C136.55 57.3783 138.341 55.5716 140.549 55.5716C142.756 55.5716 144.547 57.3783 144.547 59.6051V114.25C144.547 116.477 142.756 118.284 140.549 118.284Z" fill="black"/>
<path d="M166.968 118.284C164.76 118.284 162.969 116.477 162.969 114.25V59.6051C162.969 57.3783 164.76 55.5716 166.968 55.5716C169.175 55.5716 170.966 57.3783 170.966 59.6051V114.25C170.966 116.477 169.175 118.284 166.968 118.284Z" fill="black"/>
<path d="M193.387 118.284C191.18 118.284 189.389 116.477 189.389 114.25V59.6051C189.389 57.3783 191.18 55.5716 193.387 55.5716C195.594 55.5716 197.385 57.3783 197.385 59.6051V114.25C197.385 116.477 195.594 118.284 193.387 118.284Z" fill="black"/>
<path d="M124.85 169.636C134.624 169.636 142.548 161.643 142.548 151.783C142.548 141.923 134.624 133.93 124.85 133.93C115.075 133.93 107.152 141.923 107.152 151.783C107.152 161.643 115.075 169.636 124.85 169.636Z" fill="black"/>
<path d="M124.85 158.925C128.76 158.925 131.93 155.728 131.93 151.783C131.93 147.838 128.76 144.64 124.85 144.64C120.939 144.64 117.769 147.838 117.769 151.783C117.769 155.728 120.939 158.925 124.85 158.925Z" fill="#F3C108"/>
<path d="M256.523 169.636C266.297 169.636 274.221 161.643 274.221 151.783C274.221 141.923 266.297 133.93 256.523 133.93C246.748 133.93 238.824 141.923 238.824 151.783C238.824 161.643 246.748 169.636 256.523 169.636Z" fill="black"/>
<path d="M256.523 158.925C260.433 158.925 263.603 155.728 263.603 151.783C263.603 147.838 260.433 144.64 256.523 144.64C252.612 144.64 249.442 147.838 249.442 151.783C249.442 155.728 252.612 158.925 256.523 158.925Z" fill="#F3C108"/>
</svg>
